<svg width="400" height="400" viewBox="0 0 400 400" fill="none" xmlns="http://www.w3.org/2000/svg">
<path fill-rule="evenodd" clip-rule="evenodd" d="M179.883 0.972024C144.943 4.38602 108.855 18.552 79.4999 40.377C69.3829 47.898 48.0599 69.179 40.7999 79C17.8049 110.108 4.40287 144.44 0.84587 181.352C-0.55513 195.899 0.42687 220.638 2.95687 234.5C18.4349 319.309 83.2959 383.265 168.5 397.733C182.567 400.122 217.656 400.134 231.5 397.754C286.159 388.359 331.54 359.884 364.182 314.5C371.811 303.894 381.97 284.561 387.072 270.939C403.17 227.963 404.178 181.093 389.939 137.675C366.639 66.629 306.651 15.448 231.5 2.49702C220.757 0.645024 191.941 -0.205976 179.883 0.972024ZM249.254 74.037C249.982 75.195 247.449 80.626 238.991 96.037C232.814 107.292 225.947 119.875 223.731 124C221.515 128.125 217.234 136 214.218 141.5C211.202 147 206.93 154.875 204.725 159C202.52 163.125 200.33 166.928 199.858 167.45C199.095 168.295 198.612 173.667 199.25 174.215C199.387 174.333 220.194 174.67 245.487 174.965C286.063 175.437 291.509 175.683 291.773 177.059C292.093 178.72 287.165 183.689 261.5 207.585C252.7 215.778 243.025 224.814 240 227.665C236.975 230.515 233.552 233.669 232.392 234.674C231.233 235.678 224.258 242.155 216.892 249.066C201.085 263.898 171.599 291.466 164.5 298.05C161.75 300.601 154.366 307.502 148.092 313.387C141.565 319.508 136.003 323.956 135.092 323.783C131.66 323.129 133.071 319.328 140.578 309C144.776 303.225 149.626 296.511 151.355 294.081C153.085 291.65 158.132 284.675 162.571 278.581C198.932 228.662 205.45 219.306 205.474 217L205.5 214.5L157.28 214.24C111.034 213.991 109.018 213.903 108.041 212.077C107.15 210.411 115.712 201.502 176.261 141.092C214.342 103.097 246.127 72.121 246.893 72.256C247.659 72.39 248.721 73.192 249.254 74.037Z" fill="#61CBCB"/>
</svg>
