<svg width="1548" height="904" viewBox="0 0 1548 904" fill="none" xmlns="http://www.w3.org/2000/svg">
<g clip-path="url(#clip0_30_66)">
<rect x="328.533" width="904" height="904" rx="20" fill="white"/>
<path d="M750.962 0.706164C749.02 0.882709 742.841 1.50062 737.28 1.94198C609.02 13.5057 488.881 82.7114 412.79 189.08C370.419 248.223 343.319 315.31 333.079 386.369C329.46 411.174 329.019 418.501 329.019 452.132C329.019 485.764 329.46 493.091 333.079 517.896C357.619 687.467 478.288 829.939 641.945 882.726C671.252 892.171 702.147 898.615 737.28 902.499C750.962 904 810.105 904 823.787 902.499C884.43 895.791 935.805 880.784 986.473 854.92C994.241 850.948 995.742 849.889 994.683 849.006C993.977 848.477 960.874 804.075 921.152 750.406L848.945 652.864L758.465 518.955C708.679 445.335 667.721 385.133 667.368 385.133C667.015 385.045 666.662 444.541 666.485 517.189C666.22 644.39 666.132 649.51 664.543 652.511C662.248 656.837 660.483 658.602 656.775 660.544C653.95 661.956 651.479 662.221 638.15 662.221H622.878L618.818 659.661C616.17 657.984 614.228 655.777 612.904 653.217L611.05 649.245L611.226 472.259L611.491 295.184L614.228 291.741C615.64 289.887 618.641 287.504 620.76 286.356C624.379 284.591 625.791 284.414 641.063 284.414C659.07 284.414 662.071 285.121 666.75 290.24C668.074 291.653 717.065 365.449 775.678 454.339C834.291 543.23 914.443 664.605 953.812 724.189L1025.31 832.499L1028.93 830.116C1060.98 809.283 1094.87 779.624 1121.71 748.728C1178.82 683.142 1215.63 603.167 1227.99 517.896C1231.61 493.091 1232.05 485.764 1232.05 452.132C1232.05 418.501 1231.61 411.174 1227.99 386.369C1203.45 216.798 1082.78 74.3255 919.121 21.5385C890.256 12.1816 859.537 5.7377 825.111 1.85371C816.637 0.970981 758.289 -1.74861e-05 750.962 0.706164ZM935.805 273.822C940.042 275.94 943.485 280.001 944.72 284.238C945.427 286.533 945.603 335.613 945.427 446.218L945.162 604.932L917.179 562.032L889.109 519.131V403.759C889.109 329.169 889.462 287.239 889.991 285.209C891.404 280.266 894.493 276.382 898.73 274.086C902.35 272.233 903.674 272.056 917.532 272.056C930.597 272.056 932.892 272.233 935.805 273.822Z" fill="black"/>
<path d="M1020.9 834.441C1017.81 836.383 1016.84 837.707 1019.58 836.207C1021.52 835.059 1024.7 832.676 1024.17 832.587C1023.9 832.587 1022.4 833.47 1020.9 834.441ZM1014.81 838.413C1013.22 839.649 1013.22 839.737 1015.16 838.766C1016.22 838.237 1017.1 837.619 1017.1 837.442C1017.1 836.736 1016.66 836.913 1014.81 838.413ZM1010.4 841.062C1008.81 842.297 1008.81 842.386 1010.75 841.415C1011.81 840.885 1012.69 840.267 1012.69 840.091C1012.69 839.384 1012.25 839.561 1010.4 841.062ZM1005.98 843.71C1004.39 844.946 1004.39 845.034 1006.33 844.063C1007.39 843.533 1008.28 842.915 1008.28 842.739C1008.28 842.033 1007.84 842.209 1005.98 843.71ZM999.273 847.241C995.918 849.006 996.095 849.712 999.449 848.035C1000.95 847.241 1002.1 846.446 1002.1 846.27C1002.1 845.652 1002.01 845.74 999.273 847.241Z" fill="black"/>
</g>
<rect x="8.21541" y="514.727" width="1509.06" height="313.49" rx="1.5" transform="rotate(-16.5 8.21541 514.727)" fill="white" fill-opacity="0.88" stroke="black"/>
<path d="M254.513 663.932C249.357 668.24 243.03 672.113 235.531 675.551C228.032 678.989 220.927 681.702 214.215 683.69C192.482 690.128 173.782 689.496 158.116 681.795C142.451 674.094 131.139 658.498 124.18 635.007C117.08 611.036 118.25 591.221 127.692 575.562C137.085 559.742 153.528 548.353 177.019 541.395C188.205 538.081 200.321 536.144 213.365 535.583C214.312 538.779 215.412 543.667 216.666 550.249C217.873 556.671 218.536 561.255 218.654 564.001L203.553 568.474C192.526 571.74 183.888 574.56 177.638 576.933C171.5 579.098 167.958 580.93 167.011 582.427C165.276 585.374 164.788 590.473 165.545 597.723C166.254 604.814 167.532 611.475 169.378 617.707C172.597 628.574 176.441 636.561 180.909 641.669C185.33 646.618 189.901 649.435 194.624 650.122C199.187 650.856 206.103 649.851 215.372 647.105C222.723 644.928 232.122 641.448 243.568 636.667L254.513 663.932ZM323.589 651.814C304.413 657.494 288.705 657.28 276.466 651.171C264.34 644.855 255.389 631.949 249.614 612.453C246.442 601.746 244.632 592.114 244.183 583.555C243.846 574.79 244.643 568.383 246.573 564.335C249.017 559.092 254.711 553.668 263.655 548.064C272.758 542.412 281.624 538.308 290.253 535.752C310.868 529.646 326.872 529.686 338.264 535.871C349.657 542.057 358.217 554.818 363.945 574.154C370.098 594.929 369.905 611.586 363.364 624.127C356.823 636.668 343.565 645.897 323.589 651.814ZM316.001 623.555C322.233 621.709 325.669 618.345 326.309 613.462C326.901 608.419 325.54 600.305 322.227 589.119C319.907 581.288 317.733 575.414 315.703 571.496C313.626 567.418 311.185 564.751 308.38 563.497C305.687 562.034 302.103 561.966 297.629 563.292C291.236 565.185 287.727 566.833 287.099 568.236C286.152 569.733 286.155 573.556 287.107 579.706C288.06 585.855 289.483 592.126 291.376 598.518C294.595 609.385 297.906 616.748 301.309 620.607C304.871 624.418 309.769 625.401 316.001 623.555ZM538.519 473.163C542.212 476.241 547.893 490.724 555.561 516.612L572.744 574.621L531.755 586.763L515.779 532.829L511.944 519.885C510.193 513.972 508.592 510.622 507.142 509.835C505.485 508.935 502.579 509.101 498.424 510.332L495.619 511.423C490.76 513.21 486.377 515.725 482.47 518.968C483.624 522.277 485.456 528.166 487.964 536.636L505.147 594.644L464.158 606.786L448.182 552.852L443.922 538.47C442.454 533.516 440.996 530.645 439.546 529.858C437.888 528.958 434.982 529.124 430.828 530.355L428.022 531.446C423.595 532.932 419.268 535.343 415.042 538.681L437.551 614.667L396.561 626.809L363.899 516.545L397.218 506.675L406.858 523.375C410.049 514.781 414.607 507.869 420.531 502.637C426.409 497.246 432.863 493.509 439.895 491.426C445.807 489.675 451.661 488.897 457.455 489.093C463.409 489.241 467.898 490.606 470.922 493.187C472.307 494.341 473.887 496.741 475.663 500.387C478.93 492.64 483.414 486.358 489.114 481.54C494.814 476.723 500.94 473.344 507.492 471.403C513.404 469.652 519.258 468.874 525.052 469.07C531.006 469.218 535.495 470.583 538.519 473.163ZM576.414 438.733C570.981 440.342 565.722 439.901 560.638 437.409C555.714 434.869 552.495 431.043 550.98 425.929C549.466 420.815 550.081 415.853 552.828 411.041C555.734 406.182 559.904 402.948 565.338 401.339C570.771 399.729 575.95 400.194 580.874 402.734C585.798 405.273 589.017 409.1 590.532 414.214C592.046 419.327 591.43 424.29 588.684 429.101C585.937 433.913 581.847 437.123 576.414 438.733ZM559.847 458.502L600.836 446.361L633.498 556.625L592.509 568.767L559.847 458.502ZM729.888 415.695C731.847 417.027 734.188 421.114 736.91 427.956C739.792 434.75 743.363 445.339 747.623 459.721L764.806 517.73L723.816 529.871L706.775 472.342L703.864 462.514C702.349 457.401 701.003 454.323 699.825 453.281C698.074 452.062 694.881 452.139 690.246 453.511C688.009 454.174 686.355 454.751 685.284 455.242C680.856 456.727 676.53 459.139 672.304 462.476L694.812 538.463L653.822 550.605L621.161 440.34L654.48 430.471L664.501 447.579C671.889 430.268 683.573 419.246 699.553 414.512C705.306 412.808 710.896 412.021 716.324 412.152C721.911 412.235 726.432 413.416 729.888 415.695ZM808.04 382.898C815.551 380.673 823.547 378.913 832.028 377.618C840.462 376.162 850.373 374.704 861.76 373.243L890.02 468.646C896.789 491.498 894.452 511.484 883.01 528.606C881.566 530.772 877.654 533.408 871.273 536.515C864.893 539.622 857.468 542.429 848.999 544.938C830.621 550.382 815.369 552.292 803.242 550.67C802.041 547.201 800.908 542.496 799.843 536.554C798.938 530.564 798.388 525.773 798.193 522.181C810.219 520.53 821.746 518.072 832.772 514.806C838.365 513.149 842.985 511.433 846.631 509.658C850.484 507.995 852.724 506.462 853.352 505.06C854.251 503.403 853.79 498.324 851.968 489.825C851.465 487.541 850.575 484.241 849.296 479.926L847.521 473.934C845.278 481.03 841.418 486.779 835.943 491.182C830.468 495.585 825.254 498.521 820.3 499.988C806.877 503.964 795.427 502.575 785.952 495.822C776.477 489.068 769.231 477.221 764.213 460.282C760.9 449.096 759.318 438.179 759.466 427.532C759.728 416.677 762.007 408.528 766.304 403.083C769.11 399.645 774.262 396.206 781.761 392.768C789.373 389.123 798.132 385.833 808.04 382.898ZM827.005 465.41C832.918 463.658 837.988 461.114 842.214 457.776L827.374 407.678C825.521 407.879 822.79 408.34 819.18 409.062C817.534 409.375 815.114 410.006 811.917 410.952C806.964 412.42 803.989 413.822 802.995 415.16C801.616 416.959 801.243 420.98 801.875 427.224C802.621 433.261 803.94 439.476 805.834 445.868C808.437 454.657 811.218 460.526 814.177 463.473C817.296 466.374 821.572 467.019 827.005 465.41ZM1026.87 399.429C1031.08 413.652 1029.55 425.228 1022.29 434.159C1015.19 443.042 1003.33 449.945 986.707 454.868C975.042 458.323 961.121 460.622 944.946 461.763C944.319 458.472 943.689 453.704 943.056 447.46C942.535 441.009 942.201 436.067 942.054 432.634C948.091 431.889 954.719 430.795 961.94 429.351C969.113 427.748 975.177 426.212 980.131 424.745C984.446 423.467 987.011 422.446 987.828 421.683C987.941 421.476 987.982 421.029 987.953 420.342C988.036 419.449 987.959 418.602 987.722 417.803C986.775 414.607 984.139 413.041 979.812 413.106C978.439 413.165 973.163 413.251 963.983 413.362C954.804 413.474 946.574 411.219 939.295 406.596C932.128 401.766 927.148 394.636 924.355 385.208C922.888 380.254 922.373 374.41 922.812 367.674C923.25 360.939 924.511 356.394 926.595 354.038C928.134 352.192 932.389 349.541 939.361 346.085C946.286 342.469 952.865 339.738 959.097 337.892C972.361 333.963 985.989 330.97 999.98 328.911C1000.83 331.788 1001.88 336.78 1003.11 343.888C1004.3 350.837 1004.84 355.284 1004.72 357.232C990.615 359.497 979.408 361.861 971.098 364.322C966.783 365.6 964.058 366.668 962.921 367.527C962.649 367.781 962.472 368.355 962.389 369.249C962.258 369.983 962.359 370.909 962.69 372.028C963.353 374.265 964.545 375.65 966.268 376.183C968.037 376.875 972.195 377.121 978.741 376.92C986.547 376.868 993.339 377.203 999.115 377.925C1005.05 378.6 1010.6 380.607 1015.76 383.946C1021.08 387.237 1024.78 392.398 1026.87 399.429ZM1105.67 420.15C1086.5 425.83 1070.79 425.616 1058.55 419.507C1046.42 413.191 1037.47 400.285 1031.7 380.789C1028.53 370.082 1026.72 360.45 1026.27 351.892C1025.93 343.126 1026.73 336.719 1028.66 332.671C1031.1 327.428 1036.8 322.004 1045.74 316.4C1054.84 310.748 1063.71 306.644 1072.34 304.088C1092.95 297.982 1108.96 298.022 1120.35 304.207C1131.74 310.393 1140.3 323.154 1146.03 342.49C1152.18 363.265 1151.99 379.922 1145.45 392.463C1138.91 405.004 1125.65 414.233 1105.67 420.15ZM1098.09 391.891C1104.32 390.045 1107.75 386.681 1108.39 381.798C1108.99 376.756 1107.62 368.641 1104.31 357.455C1101.99 349.625 1099.82 343.75 1097.79 339.832C1095.71 335.754 1093.27 333.088 1090.46 331.833C1087.77 330.371 1084.19 330.302 1079.71 331.628C1073.32 333.521 1069.81 335.169 1069.18 336.572C1068.24 338.069 1068.24 341.892 1069.19 348.042C1070.14 354.191 1071.57 360.462 1073.46 366.854C1076.68 377.721 1079.99 385.084 1083.39 388.943C1086.96 392.755 1091.85 393.737 1098.09 391.891ZM1232.78 382.498C1213.61 388.179 1197.9 387.964 1185.66 381.856C1173.53 375.54 1164.58 362.634 1158.81 343.138C1155.64 332.431 1153.83 322.798 1153.38 314.24C1153.04 305.475 1153.84 299.068 1155.77 295.02C1158.21 289.776 1163.9 284.352 1172.85 278.748C1181.95 273.097 1190.82 268.993 1199.45 266.437C1220.06 260.33 1236.06 260.37 1247.46 266.556C1258.85 272.742 1267.41 285.503 1273.14 304.839C1279.29 325.613 1279.1 342.271 1272.56 354.812C1266.02 367.352 1252.76 376.581 1232.78 382.498ZM1225.19 354.24C1231.43 352.394 1234.86 349.029 1235.5 344.147C1236.09 339.104 1234.73 330.99 1231.42 319.803C1229.1 311.973 1226.93 306.099 1224.9 302.181C1222.82 298.103 1220.38 295.436 1217.57 294.181C1214.88 292.719 1211.3 292.651 1206.82 293.976C1200.43 295.87 1196.92 297.518 1196.29 298.92C1195.35 300.418 1195.35 304.241 1196.3 310.39C1197.25 316.54 1198.68 322.811 1200.57 329.203C1203.79 340.069 1207.1 347.432 1210.5 351.291C1214.06 355.103 1218.96 356.086 1225.19 354.24ZM1381.82 222.584C1383.78 223.916 1386.12 228.003 1388.84 234.845C1391.72 241.639 1395.29 252.228 1399.55 266.61L1416.74 324.619L1375.75 336.76L1358.71 279.231L1355.8 269.403C1354.28 264.29 1352.94 261.212 1351.76 260.17C1350.01 258.951 1346.81 259.028 1342.18 260.4C1339.94 261.063 1338.29 261.64 1337.22 262.131C1332.79 263.616 1328.46 266.028 1324.24 269.365L1346.74 345.352L1305.75 357.494L1273.09 247.229L1306.41 237.36L1316.43 254.468C1323.82 237.157 1335.5 226.135 1351.49 221.401C1357.24 219.697 1362.83 218.91 1368.26 219.041C1373.84 219.124 1378.36 220.305 1381.82 222.584Z" fill="#FF1010" fill-opacity="0.74"/>
<path d="M254.513 663.932L255.154 664.699L255.711 664.233L255.441 663.559L254.513 663.932ZM235.531 675.551L235.114 674.642L235.531 675.551ZM158.116 681.795L157.675 682.693L157.675 682.693L158.116 681.795ZM127.692 575.562L128.548 576.078L128.551 576.072L127.692 575.562ZM213.365 535.583L214.324 535.299L214.102 534.55L213.322 534.584L213.365 535.583ZM216.666 550.249L217.649 550.064L217.649 550.062L216.666 550.249ZM218.654 564.001L218.938 564.96L219.687 564.738L219.653 563.958L218.654 564.001ZM177.638 576.933L177.971 577.876L177.982 577.872L177.993 577.867L177.638 576.933ZM167.011 582.427L166.166 581.892L166.157 581.906L166.149 581.92L167.011 582.427ZM165.545 597.723L166.54 597.624L166.539 597.619L165.545 597.723ZM180.909 641.669L180.156 642.328L180.163 642.336L180.909 641.669ZM194.624 650.122L194.783 649.135L194.776 649.134L194.768 649.132L194.624 650.122ZM243.568 636.667L244.496 636.295L244.119 635.354L243.183 635.744L243.568 636.667ZM253.871 663.164C248.798 667.404 242.55 671.233 235.114 674.642L235.948 676.46C243.51 672.993 249.917 669.075 255.154 664.699L253.871 663.164ZM235.114 674.642C227.651 678.064 220.59 680.759 213.931 682.732L214.499 684.649C221.263 682.646 228.413 679.915 235.948 676.46L235.114 674.642ZM213.931 682.732C192.364 689.12 173.937 688.458 158.558 680.898L157.675 682.693C173.627 690.534 192.599 691.136 214.499 684.649L213.931 682.732ZM158.558 680.898C143.23 673.363 132.051 658.057 125.139 634.723L123.222 635.291C130.226 658.939 141.671 674.825 157.675 682.693L158.558 680.898ZM125.139 634.723C118.088 610.919 119.299 591.418 128.548 576.078L126.835 575.045C117.202 591.024 116.072 611.154 123.222 635.291L125.139 634.723ZM128.551 576.072C137.779 560.533 153.972 549.265 177.303 542.354L176.735 540.436C153.084 547.442 136.392 558.951 126.832 575.051L128.551 576.072ZM177.303 542.354C188.402 539.066 200.436 537.14 213.408 536.582L213.322 534.584C200.205 535.148 188.008 537.097 176.735 540.436L177.303 542.354ZM212.406 535.867C213.338 539.013 214.431 543.862 215.684 550.436L217.649 550.062C216.393 543.473 215.285 538.544 214.324 535.299L212.406 535.867ZM215.684 550.434C216.89 556.855 217.54 561.376 217.655 564.044L219.653 563.958C219.532 561.133 218.856 556.487 217.649 550.064L215.684 550.434ZM218.37 563.042L203.269 567.515L203.837 569.433L218.938 564.96L218.37 563.042ZM203.269 567.515C192.233 570.784 183.567 573.612 177.283 575.998L177.993 577.867C184.209 575.507 192.82 572.696 203.837 569.433L203.269 567.515ZM177.305 575.989C174.216 577.079 171.748 578.096 169.919 579.042C168.141 579.961 166.796 580.896 166.166 581.892L167.856 582.962C168.172 582.461 169.072 581.731 170.837 580.819C172.55 579.933 174.922 578.951 177.971 577.876L177.305 575.989ZM166.149 581.92C164.237 585.169 163.791 590.559 164.55 597.827L166.539 597.619C165.784 590.387 166.316 585.58 167.873 582.934L166.149 581.92ZM164.55 597.823C165.265 604.97 166.554 611.693 168.42 617.991L170.337 617.423C168.511 611.257 167.244 604.658 166.54 597.624L164.55 597.823ZM168.42 617.991C171.655 628.916 175.55 637.062 180.156 642.328L181.661 641.011C177.331 636.061 173.539 628.233 170.337 617.423L168.42 617.991ZM180.163 642.336C184.68 647.391 189.449 650.38 194.48 651.112L194.768 649.132C190.354 648.49 185.979 645.844 181.654 641.003L180.163 642.336ZM194.465 651.109C199.265 651.882 206.367 650.815 215.656 648.064L215.088 646.146C205.839 648.886 199.109 649.831 194.783 649.135L194.465 651.109ZM215.656 648.064C223.056 645.872 232.491 642.378 243.954 637.59L243.183 635.744C231.752 640.519 222.39 643.983 215.088 646.146L215.656 648.064ZM242.64 637.04L253.585 664.304L255.441 663.559L244.496 636.295L242.64 637.04ZM276.466 651.171L276.004 652.058L276.012 652.062L276.02 652.066L276.466 651.171ZM244.183 583.555L243.184 583.594L243.184 583.608L244.183 583.555ZM246.573 564.335L247.475 564.766L247.479 564.758L246.573 564.335ZM263.655 548.064L263.127 547.214L263.124 547.216L263.655 548.064ZM363.364 624.127L364.25 624.589L364.25 624.589L363.364 624.127ZM326.309 613.462L327.3 613.592L327.302 613.579L326.309 613.462ZM315.703 571.496L314.812 571.95L314.815 571.956L315.703 571.496ZM308.38 563.497L307.902 564.375L307.936 564.394L307.971 564.409L308.38 563.497ZM287.099 568.236L287.944 568.77L287.983 568.71L288.012 568.644L287.099 568.236ZM287.107 579.706L288.095 579.553L288.095 579.553L287.107 579.706ZM301.309 620.607L300.558 621.268L300.568 621.279L300.578 621.289L301.309 620.607ZM323.305 650.855C304.261 656.496 288.839 656.229 276.913 650.276L276.02 652.066C288.571 658.33 304.565 658.492 323.873 652.772L323.305 650.855ZM276.928 650.284C265.138 644.143 256.308 631.531 250.573 612.169L248.655 612.737C254.47 632.367 263.541 645.567 276.004 652.058L276.928 650.284ZM250.573 612.169C247.417 601.516 245.626 591.963 245.182 583.503L243.184 583.608C243.639 592.264 245.468 601.976 248.655 612.737L250.573 612.169ZM245.182 583.517C244.847 574.787 245.655 568.585 247.475 564.766L245.67 563.905C243.631 568.182 242.846 574.793 243.184 583.594L245.182 583.517ZM247.479 564.758C249.799 559.782 255.29 554.485 264.186 548.911L263.124 547.216C254.133 552.85 248.236 558.402 245.666 563.913L247.479 564.758ZM264.182 548.913C273.223 543.3 282.008 539.237 290.537 536.711L289.969 534.793C281.24 537.379 272.292 541.524 263.127 547.214L264.182 548.913ZM290.537 536.711C311.056 530.633 326.741 530.752 337.787 536.75L338.741 534.992C327.002 528.619 310.68 528.659 289.969 534.793L290.537 536.711ZM337.787 536.75C348.845 542.754 357.293 555.219 362.986 574.438L364.904 573.87C359.141 554.417 350.469 541.36 338.741 534.992L337.787 536.75ZM362.986 574.438C369.104 595.093 368.848 611.45 362.477 623.665L364.25 624.589C370.962 611.722 371.093 594.764 364.904 573.87L362.986 574.438ZM362.477 623.665C356.111 635.871 343.144 644.978 323.305 650.855L323.873 652.772C343.986 646.815 357.535 637.464 364.25 624.589L362.477 623.665ZM316.285 624.514C319.505 623.56 322.084 622.191 323.952 620.362C325.834 618.519 326.952 616.249 327.3 613.592L325.317 613.332C325.026 615.557 324.106 617.411 322.553 618.933C320.985 620.468 318.729 621.704 315.717 622.596L316.285 624.514ZM327.302 613.579C327.92 608.314 326.5 600.025 323.186 588.835L321.268 589.403C324.58 600.585 325.882 608.525 325.316 613.345L327.302 613.579ZM323.186 588.835C320.861 580.986 318.665 575.039 316.591 571.036L314.815 571.956C316.801 575.789 318.954 581.591 321.268 589.403L323.186 588.835ZM316.594 571.042C314.462 566.856 311.882 563.968 308.788 562.584L307.971 564.409C310.487 565.535 312.79 567.98 314.812 571.95L316.594 571.042ZM308.857 562.618C305.834 560.976 301.943 560.971 297.345 562.333L297.913 564.25C302.263 562.962 305.54 563.093 307.902 564.375L308.857 562.618ZM297.345 562.333C294.129 563.285 291.599 564.187 289.777 565.042C288.867 565.47 288.106 565.898 287.517 566.333C286.943 566.756 286.446 567.246 286.186 567.827L288.012 568.644C288.066 568.524 288.243 568.282 288.704 567.943C289.149 567.614 289.782 567.25 290.627 566.853C292.316 566.06 294.736 565.191 297.913 564.25L297.345 562.333ZM286.254 567.701C285.615 568.711 285.39 570.299 285.391 572.227C285.392 574.211 285.639 576.761 286.119 579.859L288.095 579.553C287.623 576.501 287.392 574.065 287.391 572.225C287.39 570.33 287.636 569.257 287.944 568.77L286.254 567.701ZM286.119 579.859C287.079 586.055 288.512 592.37 290.417 598.802L292.335 598.234C290.453 591.882 289.041 585.655 288.095 579.553L286.119 579.859ZM290.417 598.802C293.639 609.68 296.999 617.231 300.558 621.268L302.059 619.945C298.813 616.264 295.55 609.09 292.335 598.234L290.417 598.802ZM300.578 621.289C304.468 625.451 309.796 626.436 316.285 624.514L315.717 622.596C309.741 624.367 305.275 623.386 302.039 619.924L300.578 621.289ZM538.519 473.163L537.87 473.924L537.879 473.932L538.519 473.163ZM572.744 574.621L573.028 575.58L573.987 575.296L573.703 574.337L572.744 574.621ZM531.755 586.763L530.796 587.047L531.08 588.006L532.039 587.722L531.755 586.763ZM507.142 509.835L507.62 508.956L507.62 508.956L507.142 509.835ZM498.424 510.332L498.14 509.373L498.1 509.385L498.062 509.4L498.424 510.332ZM495.619 511.423L495.964 512.362L495.973 512.359L495.982 512.355L495.619 511.423ZM482.47 518.968L481.832 518.199L481.298 518.642L481.526 519.298L482.47 518.968ZM505.147 594.644L505.431 595.603L506.39 595.319L506.106 594.36L505.147 594.644ZM464.158 606.786L463.199 607.07L463.483 608.029L464.442 607.745L464.158 606.786ZM439.546 529.858L439.068 530.737L439.068 530.737L439.546 529.858ZM430.828 530.355L430.544 529.396L430.504 529.408L430.465 529.423L430.828 530.355ZM428.022 531.446L428.34 532.394L428.363 532.387L428.385 532.378L428.022 531.446ZM415.042 538.681L414.422 537.896L413.891 538.316L414.083 538.965L415.042 538.681ZM437.551 614.667L437.835 615.626L438.793 615.342L438.509 614.383L437.551 614.667ZM396.561 626.809L395.602 627.093L395.886 628.052L396.845 627.768L396.561 626.809ZM363.899 516.545L363.615 515.586L362.656 515.87L362.94 516.829L363.899 516.545ZM397.218 506.675L398.084 506.175L397.69 505.492L396.934 505.716L397.218 506.675ZM406.858 523.375L405.992 523.875L407.055 525.717L407.796 523.723L406.858 523.375ZM420.531 502.637L421.193 503.387L421.2 503.381L421.207 503.374L420.531 502.637ZM457.455 489.093L457.421 490.092L457.43 490.093L457.455 489.093ZM470.922 493.187L470.273 493.947L470.282 493.955L470.922 493.187ZM475.663 500.387L474.763 500.825L475.728 502.805L476.584 500.775L475.663 500.387ZM525.052 469.07L525.018 470.069L525.027 470.069L525.052 469.07ZM537.879 473.932C538.645 474.57 539.617 475.904 540.779 478.081C541.926 480.229 543.205 483.097 544.618 486.699C547.443 493.902 550.771 503.963 554.602 516.897L556.52 516.328C552.683 503.374 549.336 493.25 546.48 485.969C545.053 482.33 543.741 479.382 542.544 477.139C541.362 474.926 540.24 473.296 539.159 472.395L537.879 473.932ZM554.602 516.897L571.785 574.905L573.703 574.337L556.52 516.328L554.602 516.897ZM572.46 573.662L531.471 585.804L532.039 587.722L573.028 575.58L572.46 573.662ZM532.713 586.479L516.737 532.545L514.82 533.113L530.796 587.047L532.713 586.479ZM516.737 532.545L512.903 519.601L510.986 520.169L514.82 533.113L516.737 532.545ZM512.903 519.601C512.021 516.623 511.166 514.25 510.333 512.507C509.916 511.635 509.494 510.898 509.063 510.313C508.638 509.737 508.163 509.251 507.62 508.956L506.665 510.714C506.847 510.813 507.115 511.041 507.453 511.5C507.785 511.949 508.144 512.566 508.528 513.369C509.296 514.976 510.116 517.235 510.986 520.169L512.903 519.601ZM507.62 508.956C506.562 508.382 505.209 508.198 503.663 508.286C502.106 508.375 500.26 508.745 498.14 509.373L498.708 511.29C500.744 510.687 502.428 510.36 503.777 510.283C505.137 510.205 506.066 510.389 506.665 510.714L507.62 508.956ZM498.062 509.4L495.256 510.491L495.982 512.355L498.787 511.263L498.062 509.4ZM495.274 510.485C490.31 512.31 485.827 514.882 481.832 518.199L483.109 519.738C486.926 516.569 491.209 514.11 495.964 512.362L495.274 510.485ZM481.526 519.298C482.671 522.581 484.497 528.449 487.006 536.92L488.923 536.352C486.415 527.883 484.577 521.973 483.415 518.639L481.526 519.298ZM487.006 536.92L504.188 594.928L506.106 594.36L488.923 536.352L487.006 536.92ZM504.863 593.685L463.874 605.827L464.442 607.745L505.431 595.603L504.863 593.685ZM465.117 606.502L449.141 552.568L447.223 553.136L463.199 607.07L465.117 606.502ZM449.141 552.568L444.88 538.186L442.963 538.754L447.223 553.136L449.141 552.568ZM444.88 538.186C444.139 535.681 443.387 533.66 442.619 532.149C441.871 530.677 441.029 529.525 440.023 528.979L439.068 530.737C439.513 530.978 440.125 531.656 440.836 533.055C441.526 534.413 442.237 536.305 442.963 538.754L444.88 538.186ZM440.023 528.979C438.965 528.405 437.612 528.221 436.066 528.309C434.509 528.398 432.663 528.768 430.544 529.396L431.112 531.313C433.147 530.71 434.832 530.383 436.18 530.306C437.54 530.228 438.469 530.412 439.068 530.737L440.023 528.979ZM430.465 529.423L427.659 530.514L428.385 532.378L431.19 531.287L430.465 529.423ZM427.704 530.498C423.152 532.025 418.725 534.498 414.422 537.896L415.662 539.466C419.811 536.188 424.038 533.838 428.34 532.394L427.704 530.498ZM414.083 538.965L436.592 614.951L438.509 614.383L416.001 538.397L414.083 538.965ZM437.266 613.708L396.277 625.85L396.845 627.768L437.835 615.626L437.266 613.708ZM397.52 626.525L364.858 516.261L362.94 516.829L395.602 627.093L397.52 626.525ZM364.183 517.503L397.502 507.634L396.934 505.716L363.615 515.586L364.183 517.503ZM396.352 507.175L405.992 523.875L407.724 522.875L398.084 506.175L396.352 507.175ZM407.796 523.723C410.938 515.259 415.411 508.493 421.193 503.387L419.87 501.888C413.803 507.245 409.16 514.304 405.921 523.027L407.796 523.723ZM421.207 503.374C426.983 498.077 433.306 494.421 440.179 492.385L439.611 490.468C432.421 492.597 425.835 496.416 419.856 501.901L421.207 503.374ZM440.179 492.385C445.995 490.662 451.741 489.9 457.421 490.092L457.489 488.093C451.581 487.894 445.62 488.688 439.611 490.468L440.179 492.385ZM457.43 490.093C463.265 490.238 467.492 491.574 470.273 493.947L471.572 492.426C468.305 489.638 463.554 488.245 457.48 488.093L457.43 490.093ZM470.282 493.955C471.489 494.96 472.992 497.186 474.763 500.825L476.562 499.949C474.783 496.296 473.126 493.721 471.563 492.418L470.282 493.955ZM476.584 500.775C479.798 493.155 484.194 487.007 489.759 482.304L488.468 480.777C482.634 485.708 478.062 492.125 474.741 499.998L476.584 500.775ZM489.759 482.304C495.363 477.568 501.368 474.26 507.776 472.362L507.208 470.444C500.511 472.428 494.264 475.878 488.468 480.777L489.759 482.304ZM507.776 472.362C513.592 470.639 519.338 469.877 525.018 470.069L525.086 468.07C519.177 467.871 513.217 468.664 507.208 470.444L507.776 472.362ZM525.027 470.069C530.861 470.215 535.089 471.551 537.87 473.924L539.168 472.403C535.901 469.615 531.151 468.221 525.077 468.07L525.027 470.069ZM560.638 437.409L560.18 438.298L560.189 438.302L560.198 438.307L560.638 437.409ZM552.828 411.041L551.97 410.528L551.965 410.537L551.96 410.546L552.828 411.041ZM559.847 458.502L559.563 457.544L558.604 457.828L558.888 458.786L559.847 458.502ZM600.836 446.361L601.795 446.077L601.511 445.118L600.552 445.402L600.836 446.361ZM633.498 556.625L633.782 557.584L634.741 557.3L634.457 556.341L633.498 556.625ZM592.509 568.767L591.55 569.051L591.834 570.009L592.793 569.725L592.509 568.767ZM576.13 437.774C570.937 439.312 565.937 438.892 561.079 436.511L560.198 438.307C565.508 440.909 571.025 441.372 576.698 439.692L576.13 437.774ZM561.097 436.52C556.405 434.1 553.373 430.486 551.939 425.645L550.022 426.213C551.617 431.599 555.024 435.639 560.18 438.298L561.097 436.52ZM551.939 425.645C550.505 420.804 551.079 416.122 553.697 411.537L551.96 410.546C549.084 415.583 548.426 420.827 550.022 426.213L551.939 425.645ZM553.686 411.555C556.464 406.911 560.429 403.836 565.622 402.298L565.054 400.38C559.38 402.061 555.005 405.454 551.97 410.528L553.686 411.555ZM565.622 402.298C570.814 400.76 575.726 401.204 580.415 403.623L581.332 401.845C576.173 399.184 570.728 398.699 565.054 400.38L565.622 402.298ZM580.415 403.623C585.107 406.043 588.139 409.656 589.573 414.498L591.49 413.929C589.895 408.543 586.488 404.504 581.332 401.845L580.415 403.623ZM589.573 414.498C591.007 419.339 590.433 424.021 587.815 428.606L589.552 429.597C592.428 424.559 593.086 419.316 591.49 413.929L589.573 414.498ZM587.815 428.606C585.2 433.188 581.322 436.236 576.13 437.774L576.698 439.692C582.372 438.011 586.675 434.638 589.552 429.597L587.815 428.606ZM560.131 459.461L601.12 447.319L600.552 445.402L559.563 457.544L560.131 459.461ZM599.877 446.645L632.539 556.909L634.457 556.341L601.795 446.077L599.877 446.645ZM633.214 555.666L592.224 567.808L592.793 569.725L633.782 557.584L633.214 555.666ZM593.467 568.483L560.806 458.218L558.888 458.786L591.55 569.051L593.467 568.483ZM729.888 415.695L730.451 414.868L730.445 414.864L730.439 414.86L729.888 415.695ZM736.91 427.956L735.981 428.325L735.985 428.336L735.989 428.346L736.91 427.956ZM764.806 517.73L765.09 518.689L766.049 518.405L765.765 517.446L764.806 517.73ZM723.816 529.871L722.857 530.155L723.141 531.114L724.1 530.83L723.816 529.871ZM699.825 453.281L700.488 452.532L700.444 452.494L700.397 452.46L699.825 453.281ZM685.284 455.242L685.602 456.19L685.652 456.173L685.7 456.151L685.284 455.242ZM672.304 462.476L671.684 461.692L671.153 462.111L671.345 462.76L672.304 462.476ZM694.812 538.463L695.096 539.422L696.055 539.138L695.771 538.179L694.812 538.463ZM653.822 550.605L652.864 550.889L653.148 551.847L654.106 551.563L653.822 550.605ZM621.161 440.34L620.877 439.382L619.918 439.666L620.202 440.624L621.161 440.34ZM654.48 430.471L655.342 429.965L654.947 429.29L654.196 429.512L654.48 430.471ZM664.501 447.579L663.638 448.084L664.642 449.797L665.421 447.971L664.501 447.579ZM716.324 412.152L716.299 413.152L716.309 413.152L716.324 412.152ZM729.326 416.522C730.108 417.054 731.09 418.239 732.245 420.256C733.383 422.242 734.629 424.927 735.981 428.325L737.839 427.586C736.469 424.143 735.184 421.363 733.981 419.262C732.795 417.192 731.628 415.668 730.451 414.868L729.326 416.522ZM735.989 428.346C738.848 435.086 742.406 445.63 746.664 460.005L748.582 459.437C744.319 445.048 740.735 434.414 737.83 427.565L735.989 428.346ZM746.664 460.005L763.847 518.014L765.765 517.446L748.582 459.437L746.664 460.005ZM764.522 516.771L723.532 528.913L724.1 530.83L765.09 518.689L764.522 516.771ZM724.775 529.587L707.734 472.058L705.817 472.626L722.857 530.155L724.775 529.587ZM707.734 472.058L704.823 462.23L702.905 462.798L705.817 472.626L707.734 472.058ZM704.823 462.23C704.06 459.654 703.331 457.562 702.635 455.97C701.955 454.416 701.252 453.208 700.488 452.532L699.163 454.03C699.576 454.396 700.136 455.248 700.802 456.772C701.452 458.257 702.154 460.261 702.905 462.798L704.823 462.23ZM700.397 452.46C699.279 451.683 697.802 451.383 696.093 451.425C694.376 451.466 692.325 451.852 689.962 452.552L690.53 454.47C692.802 453.797 694.665 453.459 696.141 453.424C697.625 453.388 698.62 453.66 699.254 454.102L700.397 452.46ZM689.962 452.552C687.715 453.218 686.005 453.811 684.867 454.333L685.7 456.151C686.705 455.691 688.304 455.13 690.53 454.47L689.962 452.552ZM684.966 454.294C680.414 455.821 675.987 458.293 671.684 461.692L672.924 463.261C677.073 459.984 681.299 457.634 685.602 456.19L684.966 454.294ZM671.345 462.76L693.853 538.747L695.771 538.179L673.263 462.192L671.345 462.76ZM694.528 537.504L653.538 549.646L654.106 551.563L695.096 539.422L694.528 537.504ZM654.781 550.321L622.119 440.056L620.202 440.624L652.864 550.889L654.781 550.321ZM621.445 441.299L654.764 431.43L654.196 429.512L620.877 439.382L621.445 441.299ZM653.617 430.976L663.638 448.084L665.364 447.074L655.342 429.965L653.617 430.976ZM665.421 447.971C672.709 430.895 684.182 420.108 699.837 415.471L699.269 413.553C682.964 418.383 671.069 429.641 663.582 447.186L665.421 447.971ZM699.837 415.471C705.501 413.793 710.987 413.024 716.299 413.152L716.348 411.152C710.806 411.019 705.112 411.823 699.269 413.553L699.837 415.471ZM716.309 413.152C721.77 413.233 726.087 414.387 729.338 416.53L730.439 414.86C726.777 412.446 722.051 411.237 716.338 411.152L716.309 413.152ZM832.028 377.618L832.179 378.606L832.189 378.605L832.198 378.603L832.028 377.618ZM861.76 373.243L862.719 372.959L862.477 372.143L861.633 372.251L861.76 373.243ZM883.01 528.606L882.179 528.05L882.178 528.051L883.01 528.606ZM871.273 536.515L870.836 535.616L870.836 535.616L871.273 536.515ZM803.242 550.67L802.297 550.997L802.499 551.579L803.109 551.661L803.242 550.67ZM799.843 536.554L798.854 536.703L798.856 536.717L798.859 536.73L799.843 536.554ZM798.193 522.181L798.057 521.19L797.144 521.315L797.194 522.235L798.193 522.181ZM846.631 509.658L846.235 508.74L846.214 508.749L846.193 508.759L846.631 509.658ZM853.352 505.06L852.473 504.583L852.455 504.616L852.439 504.651L853.352 505.06ZM851.968 489.825L852.946 489.616L852.945 489.61L851.968 489.825ZM847.521 473.934L848.48 473.65L847.553 470.518L846.568 473.632L847.521 473.934ZM835.943 491.182L835.317 490.403L835.317 490.403L835.943 491.182ZM785.952 495.822L785.372 496.636L785.952 495.822ZM759.466 427.532L758.467 427.508L758.466 427.518L759.466 427.532ZM766.304 403.083L765.529 402.451L765.524 402.457L765.519 402.464L766.304 403.083ZM781.761 392.768L782.178 393.677L782.185 393.674L782.193 393.67L781.761 392.768ZM842.214 457.776L842.833 458.561L843.365 458.141L843.172 457.492L842.214 457.776ZM827.374 407.678L828.333 407.394L828.096 406.593L827.266 406.683L827.374 407.678ZM819.18 409.062L819.367 410.044L819.376 410.042L819.18 409.062ZM802.995 415.16L803.789 415.768L803.793 415.762L803.797 415.756L802.995 415.16ZM801.875 427.224L800.881 427.325L800.882 427.336L800.883 427.347L801.875 427.224ZM814.177 463.473L813.472 464.182L813.484 464.194L813.496 464.206L814.177 463.473ZM808.324 383.857C815.787 381.646 823.739 379.896 832.179 378.606L831.877 376.629C823.355 377.931 815.314 379.701 807.756 381.939L808.324 383.857ZM832.198 378.603C840.614 377.151 850.51 375.695 861.887 374.235L861.633 372.251C850.236 373.714 840.31 375.174 831.858 376.632L832.198 378.603ZM860.801 373.527L889.061 468.93L890.978 468.362L862.719 372.959L860.801 373.527ZM889.061 468.93C895.76 491.547 893.429 511.216 882.179 528.05L883.842 529.161C895.476 511.753 897.817 491.449 890.978 468.362L889.061 468.93ZM882.178 528.051C881.565 528.971 880.356 530.083 878.434 531.378C876.531 532.661 874.003 534.074 870.836 535.616L871.711 537.414C874.925 535.849 877.543 534.391 879.552 533.037C881.543 531.695 883.011 530.407 883.842 529.161L882.178 528.051ZM870.836 535.616C864.515 538.693 857.143 541.483 848.715 543.979L849.283 545.897C857.793 543.376 865.271 540.55 871.711 537.414L870.836 535.616ZM848.715 543.979C830.404 549.403 815.305 551.275 803.375 549.679L803.109 551.661C815.433 553.31 830.838 551.36 849.283 545.897L848.715 543.979ZM804.187 550.343C803.01 546.945 801.888 542.297 800.827 536.377L798.859 536.73C799.928 542.696 801.072 547.458 802.297 550.997L804.187 550.343ZM800.832 536.404C799.929 530.428 799.384 525.673 799.191 522.126L797.194 522.235C797.392 525.873 797.947 530.7 798.854 536.703L800.832 536.404ZM798.329 523.171C810.403 521.515 821.979 519.046 833.056 515.765L832.488 513.847C821.513 517.098 810.036 519.546 798.057 521.19L798.329 523.171ZM833.056 515.765C838.681 514.098 843.357 512.364 847.069 510.557L846.193 508.759C842.613 510.502 838.049 512.2 832.488 513.847L833.056 515.765ZM847.027 510.576C848.984 509.731 850.572 508.903 851.766 508.087C852.936 507.285 853.837 506.423 854.264 505.468L852.439 504.651C852.238 505.099 851.705 505.704 850.636 506.436C849.59 507.152 848.13 507.922 846.235 508.74L847.027 510.576ZM854.23 505.537C854.559 504.931 854.711 504.13 854.769 503.24C854.829 502.328 854.794 501.216 854.676 499.918C854.441 497.32 853.86 493.881 852.946 489.616L850.99 490.035C851.898 494.268 852.459 497.618 852.685 500.099C852.797 501.34 852.824 502.339 852.773 503.11C852.722 503.904 852.594 504.359 852.473 504.583L854.23 505.537ZM852.945 489.61C852.434 487.29 851.535 483.963 850.255 479.642L848.338 480.21C849.614 484.519 850.496 487.791 850.991 490.04L852.945 489.61ZM850.255 479.642L848.48 473.65L846.563 474.218L848.338 480.21L850.255 479.642ZM846.568 473.632C844.38 480.552 840.629 486.131 835.317 490.403L836.57 491.962C842.208 487.428 846.175 481.508 848.475 474.235L846.568 473.632ZM835.317 490.403C829.909 494.752 824.809 497.609 820.016 499.029L820.584 500.947C825.699 499.432 831.028 496.419 836.57 491.962L835.317 490.403ZM820.016 499.029C806.821 502.938 795.706 501.546 786.533 495.007L785.372 496.636C795.149 503.605 806.932 504.991 820.584 500.947L820.016 499.029ZM786.533 495.007C777.312 488.435 770.158 476.829 765.172 459.998L763.255 460.566C768.304 477.614 775.642 489.701 785.372 496.636L786.533 495.007ZM765.172 459.998C761.885 448.9 760.319 438.083 760.466 427.546L758.466 427.518C758.316 438.275 759.915 449.293 763.255 460.566L765.172 459.998ZM760.466 427.556C760.725 416.804 762.983 408.905 767.089 403.703L765.519 402.464C761.031 408.15 758.73 416.551 758.467 427.508L760.466 427.556ZM767.079 403.715C769.737 400.458 774.718 397.097 782.178 393.677L781.344 391.859C773.806 395.315 768.483 398.831 765.529 402.451L767.079 403.715ZM782.193 393.67C789.748 390.052 798.456 386.78 808.324 383.857L807.756 381.939C797.808 384.886 788.998 388.194 781.329 391.866L782.193 393.67ZM827.29 466.368C833.307 464.586 838.494 461.988 842.833 458.561L841.594 456.991C837.481 460.239 832.53 462.73 826.721 464.451L827.29 466.368ZM843.172 457.492L828.333 407.394L826.415 407.962L841.255 458.06L843.172 457.492ZM827.266 406.683C825.368 406.889 822.601 407.358 818.984 408.081L819.376 410.042C822.979 409.322 825.675 408.868 827.482 408.672L827.266 406.683ZM818.992 408.08C817.296 408.403 814.837 409.045 811.633 409.993L812.201 411.911C815.39 410.966 817.772 410.348 819.367 410.044L818.992 408.08ZM811.633 409.993C809.132 410.734 807.096 411.469 805.545 412.2C804.027 412.916 802.844 413.687 802.192 414.563L803.797 415.756C804.141 415.295 804.941 414.696 806.398 414.009C807.821 413.338 809.749 412.637 812.201 411.911L811.633 409.993ZM802.201 414.551C801.339 415.677 800.877 417.362 800.685 419.433C800.49 421.533 800.561 424.17 800.881 427.325L802.87 427.124C802.557 424.035 802.498 421.539 802.676 419.618C802.857 417.667 803.272 416.442 803.789 415.768L802.201 414.551ZM800.883 427.347C801.636 433.443 802.967 439.712 804.875 446.152L806.792 445.584C804.913 439.24 803.606 433.079 802.868 427.102L800.883 427.347ZM804.875 446.152C807.482 454.953 810.319 461.041 813.472 464.182L814.883 462.765C812.118 460.01 809.392 454.361 806.792 445.584L804.875 446.152ZM813.496 464.206C816.958 467.425 821.644 468.041 827.29 466.368L826.721 464.451C821.5 465.997 817.634 465.322 814.858 462.741L813.496 464.206ZM1022.29 434.159L1021.51 433.528L1021.51 433.534L1022.29 434.159ZM944.946 461.763L943.963 461.95L944.13 462.823L945.016 462.76L944.946 461.763ZM943.056 447.46L942.059 447.541L942.06 447.551L942.061 447.561L943.056 447.46ZM942.054 432.634L941.931 431.642L941.015 431.755L941.055 432.677L942.054 432.634ZM961.94 429.351L962.136 430.332L962.147 430.33L962.158 430.327L961.94 429.351ZM987.828 421.683L988.511 422.413L988.63 422.303L988.707 422.16L987.828 421.683ZM987.953 420.342L986.957 420.25L986.951 420.317L986.954 420.385L987.953 420.342ZM979.812 413.106L979.797 412.106L979.783 412.107L979.769 412.107L979.812 413.106ZM963.983 413.362L963.995 414.362L963.995 414.362L963.983 413.362ZM939.295 406.596L938.736 407.425L938.747 407.433L938.759 407.44L939.295 406.596ZM922.812 367.674L921.814 367.609L921.814 367.609L922.812 367.674ZM926.595 354.038L927.344 354.701L927.353 354.69L927.363 354.679L926.595 354.038ZM939.361 346.085L939.806 346.981L939.815 346.976L939.824 346.971L939.361 346.085ZM999.98 328.911L1000.94 328.627L1000.69 327.795L999.835 327.922L999.98 328.911ZM1003.11 343.888L1004.1 343.719L1004.1 343.717L1003.11 343.888ZM1004.72 357.232L1004.88 358.219L1005.67 358.092L1005.72 357.292L1004.72 357.232ZM962.921 367.527L962.319 366.728L962.277 366.76L962.239 366.796L962.921 367.527ZM962.389 369.249L963.373 369.424L963.38 369.383L963.384 369.341L962.389 369.249ZM966.268 376.183L966.632 375.251L966.598 375.238L966.563 375.227L966.268 376.183ZM978.741 376.92L978.734 375.92L978.722 375.921L978.71 375.921L978.741 376.92ZM999.115 377.925L998.991 378.917L999.002 378.919L999.115 377.925ZM1015.76 383.946L1015.22 384.785L1015.23 384.791L1015.23 384.796L1015.76 383.946ZM1025.91 399.713C1030.06 413.721 1028.51 424.926 1021.51 433.528L1023.07 434.79C1030.6 425.53 1032.1 413.582 1027.82 399.145L1025.91 399.713ZM1021.51 433.534C1014.59 442.194 1002.94 449.016 986.423 453.909L986.991 455.827C1003.71 450.874 1015.79 443.889 1023.07 434.783L1021.51 433.534ZM986.423 453.909C974.846 457.338 961.001 459.628 944.875 460.765L945.016 462.76C961.241 461.616 975.237 459.308 986.991 455.827L986.423 453.909ZM945.928 461.575C945.309 458.328 944.683 453.595 944.051 447.36L942.061 447.561C942.695 453.814 943.328 458.616 943.963 461.95L945.928 461.575ZM944.053 447.38C943.532 440.932 943.2 436.005 943.053 432.591L941.055 432.677C941.203 436.129 941.538 441.086 942.059 447.541L944.053 447.38ZM942.176 433.627C948.242 432.878 954.896 431.779 962.136 430.332L961.744 428.371C954.543 429.81 947.939 430.9 941.931 431.642L942.176 433.627ZM962.158 430.327C969.345 428.721 975.432 427.18 980.415 425.704L979.847 423.786C974.922 425.245 968.882 426.775 961.722 428.375L962.158 430.327ZM980.415 425.704C982.586 425.061 984.338 424.476 985.661 423.95C986.938 423.442 987.949 422.938 988.511 422.413L987.145 420.952C986.89 421.191 986.21 421.579 984.922 422.092C983.679 422.586 981.991 423.151 979.847 423.786L980.415 425.704ZM988.707 422.16C988.863 421.873 988.915 421.543 988.939 421.285C988.966 420.999 988.968 420.667 988.952 420.299L986.954 420.385C986.967 420.704 986.963 420.938 986.948 421.1C986.941 421.18 986.932 421.229 986.926 421.253C986.919 421.282 986.921 421.257 986.949 421.206L988.707 422.16ZM988.948 420.435C989.042 419.424 988.956 418.449 988.681 417.519L986.763 418.087C986.961 418.755 987.029 419.473 986.957 420.25L988.948 420.435ZM988.681 417.519C988.143 415.702 987.1 414.295 985.545 413.372C984.016 412.464 982.073 412.072 979.797 412.106L979.827 414.106C981.878 414.075 983.417 414.434 984.524 415.092C985.606 415.734 986.355 416.708 986.763 418.087L988.681 417.519ZM979.769 412.107C978.416 412.165 973.161 412.251 963.971 412.363L963.995 414.362C973.164 414.251 978.462 414.165 979.855 414.105L979.769 412.107ZM963.971 412.363C954.972 412.472 946.936 410.264 939.831 405.752L938.759 407.44C946.213 412.174 954.635 414.476 963.995 414.362L963.971 412.363ZM939.854 405.766C932.906 401.084 928.05 394.162 925.314 384.924L923.396 385.492C926.245 395.111 931.35 402.447 938.736 407.425L939.854 405.766ZM925.314 384.924C923.888 380.112 923.377 374.391 923.81 367.739L921.814 367.609C921.37 374.428 921.887 380.396 923.396 385.492L925.314 384.924ZM923.81 367.739C924.026 364.414 924.444 361.666 925.05 359.481C925.658 357.288 926.44 355.722 927.344 354.701L925.846 353.376C924.666 354.71 923.775 356.595 923.123 358.947C922.468 361.307 922.036 364.2 921.814 367.609L923.81 367.739ZM927.363 354.679C928.024 353.886 929.356 352.831 931.469 351.514C933.559 350.212 936.334 348.701 939.806 346.981L938.917 345.189C935.416 346.924 932.578 348.467 930.412 349.816C928.27 351.151 926.704 352.345 925.826 353.398L927.363 354.679ZM939.824 346.971C946.703 343.38 953.222 340.676 959.381 338.851L958.813 336.933C952.508 338.801 945.87 341.559 938.899 345.198L939.824 346.971ZM959.381 338.851C972.599 334.936 986.18 331.952 1000.13 329.9L999.835 327.922C985.797 329.987 972.123 332.991 958.813 336.933L959.381 338.851ZM999.021 329.195C999.855 332.01 1000.89 336.951 1002.13 344.059L1004.1 343.717C1002.86 336.608 1001.81 331.565 1000.94 328.627L999.021 329.195ZM1002.13 344.057C1002.72 347.523 1003.15 350.354 1003.41 352.555C1003.68 354.775 1003.77 356.295 1003.72 357.171L1005.72 357.292C1005.78 356.22 1005.67 354.543 1005.4 352.316C1005.13 350.069 1004.69 347.202 1004.1 343.719L1002.13 344.057ZM1004.56 356.244C990.437 358.513 979.183 360.885 970.814 363.363L971.382 365.281C979.633 362.837 990.792 360.482 1004.88 358.219L1004.56 356.244ZM970.814 363.363C968.642 364.007 966.852 364.602 965.453 365.151C964.075 365.691 963.002 366.213 962.319 366.728L963.524 368.325C963.977 367.982 964.835 367.541 966.183 367.013C967.509 366.493 969.239 365.916 971.382 365.281L970.814 363.363ZM962.239 366.796C961.92 367.094 961.741 367.491 961.629 367.852C961.512 368.229 961.438 368.671 961.393 369.156L963.384 369.341C963.422 368.933 963.478 368.641 963.539 368.443C963.605 368.231 963.651 368.214 963.604 368.257L962.239 366.796ZM961.404 369.074C961.236 370.023 961.378 371.12 961.731 372.312L963.649 371.744C963.339 370.698 963.281 369.942 963.373 369.424L961.404 369.074ZM961.731 372.312C962.458 374.764 963.838 376.478 965.972 377.138L966.563 375.227C965.253 374.822 964.248 373.766 963.649 371.744L961.731 372.312ZM965.903 377.114C966.946 377.522 968.565 377.761 970.654 377.885C972.775 378.01 975.483 378.021 978.772 377.92L978.71 375.921C975.452 376.021 972.809 376.009 970.772 375.888C968.704 375.766 967.359 375.536 966.632 375.251L965.903 377.114ZM978.748 377.92C986.524 377.868 993.27 378.202 998.991 378.917L999.239 376.933C993.408 376.203 986.571 375.868 978.734 375.92L978.748 377.92ZM999.002 378.919C1004.78 379.576 1010.18 381.528 1015.22 384.785L1016.3 383.106C1011.02 379.686 1005.32 377.625 999.228 376.932L999.002 378.919ZM1015.23 384.796C1020.31 387.936 1023.88 392.874 1025.91 399.713L1027.82 399.145C1025.68 391.921 1021.85 386.537 1016.29 383.095L1015.23 384.796ZM1058.55 419.507L1058.09 420.394L1058.1 420.398L1058.1 420.402L1058.55 419.507ZM1026.27 351.892L1025.27 351.93L1025.27 351.944L1026.27 351.892ZM1028.66 332.671L1029.56 333.102L1029.56 333.094L1028.66 332.671ZM1045.74 316.4L1045.21 315.55L1045.21 315.552L1045.74 316.4ZM1145.45 392.463L1146.33 392.926L1146.33 392.926L1145.45 392.463ZM1108.39 381.798L1109.38 381.928L1109.39 381.915L1108.39 381.798ZM1097.79 339.832L1096.9 340.286L1096.9 340.292L1097.79 339.832ZM1090.46 331.833L1089.99 332.711L1090.02 332.73L1090.06 332.745L1090.46 331.833ZM1069.18 336.572L1070.03 337.106L1070.07 337.046L1070.1 336.98L1069.18 336.572ZM1069.19 348.042L1070.18 347.889L1070.18 347.889L1069.19 348.042ZM1083.39 388.943L1082.64 389.604L1082.65 389.615L1082.66 389.626L1083.39 388.943ZM1105.39 419.191C1086.35 424.832 1070.92 424.565 1059 418.612L1058.1 420.402C1070.66 426.666 1086.65 426.828 1105.96 421.109L1105.39 419.191ZM1059.01 418.62C1047.22 412.479 1038.39 399.867 1032.66 380.505L1030.74 381.073C1036.55 400.703 1045.63 413.903 1058.09 420.394L1059.01 418.62ZM1032.66 380.505C1029.5 369.852 1027.71 360.299 1027.27 351.839L1025.27 351.944C1025.72 360.6 1027.55 370.312 1030.74 381.073L1032.66 380.505ZM1027.27 351.853C1026.93 343.123 1027.74 336.921 1029.56 333.102L1027.75 332.241C1025.72 336.518 1024.93 343.129 1025.27 351.93L1027.27 351.853ZM1029.56 333.094C1031.88 328.118 1037.37 322.821 1046.27 317.247L1045.21 315.552C1036.22 321.186 1030.32 326.738 1027.75 332.249L1029.56 333.094ZM1046.27 317.249C1055.31 311.636 1064.09 307.574 1072.62 305.047L1072.05 303.129C1063.32 305.715 1054.38 309.86 1045.21 315.55L1046.27 317.249ZM1072.62 305.047C1093.14 298.969 1108.83 299.089 1119.87 305.086L1120.83 303.329C1109.09 296.955 1092.76 296.995 1072.05 303.129L1072.62 305.047ZM1119.87 305.086C1130.93 311.09 1139.38 323.555 1145.07 342.774L1146.99 342.206C1141.23 322.753 1132.55 309.696 1120.83 303.329L1119.87 305.086ZM1145.07 342.774C1151.19 363.429 1150.93 379.786 1144.56 392.001L1146.33 392.926C1153.05 380.058 1153.18 363.1 1146.99 342.206L1145.07 342.774ZM1144.56 392.001C1138.19 404.207 1125.23 413.315 1105.39 419.191L1105.96 421.109C1126.07 415.151 1139.62 405.8 1146.33 392.926L1144.56 392.001ZM1098.37 392.85C1101.59 391.896 1104.17 390.527 1106.04 388.698C1107.92 386.855 1109.04 384.586 1109.38 381.928L1107.4 381.668C1107.11 383.893 1106.19 385.747 1104.64 387.269C1103.07 388.804 1100.81 390.04 1097.8 390.932L1098.37 392.85ZM1109.39 381.915C1110 376.65 1108.58 368.361 1105.27 357.171L1103.35 357.739C1106.66 368.921 1107.97 376.861 1107.4 381.681L1109.39 381.915ZM1105.27 357.171C1102.94 349.322 1100.75 343.375 1098.68 339.372L1096.9 340.292C1098.89 344.125 1101.04 349.927 1103.35 357.739L1105.27 357.171ZM1098.68 339.378C1096.55 335.192 1093.97 332.304 1090.87 330.92L1090.06 332.745C1092.57 333.871 1094.87 336.316 1096.9 340.286L1098.68 339.378ZM1090.94 330.954C1087.92 329.312 1084.03 329.307 1079.43 330.669L1080 332.586C1084.35 331.298 1087.62 331.429 1089.99 332.711L1090.94 330.954ZM1079.43 330.669C1076.21 331.621 1073.68 332.523 1071.86 333.379C1070.95 333.806 1070.19 334.234 1069.6 334.669C1069.03 335.092 1068.53 335.583 1068.27 336.163L1070.1 336.98C1070.15 336.86 1070.33 336.618 1070.79 336.279C1071.23 335.95 1071.87 335.586 1072.71 335.189C1074.4 334.396 1076.82 333.527 1080 332.586L1079.43 330.669ZM1068.34 336.037C1067.7 337.047 1067.47 338.635 1067.48 340.563C1067.48 342.547 1067.72 345.097 1068.2 348.195L1070.18 347.889C1069.71 344.837 1069.48 342.401 1069.48 340.562C1069.47 338.666 1069.72 337.593 1070.03 337.106L1068.34 336.037ZM1068.2 348.195C1069.16 354.392 1070.6 360.706 1072.5 367.138L1074.42 366.57C1072.54 360.218 1071.12 353.991 1070.18 347.889L1068.2 348.195ZM1072.5 367.138C1075.72 378.016 1079.08 385.567 1082.64 389.604L1084.14 388.281C1080.9 384.6 1077.63 377.426 1074.42 366.57L1072.5 367.138ZM1082.66 389.626C1086.55 393.787 1091.88 394.772 1098.37 392.85L1097.8 390.932C1091.83 392.703 1087.36 391.722 1084.12 388.26L1082.66 389.626ZM1185.66 381.856L1185.2 382.742L1185.21 382.746L1185.21 382.75L1185.66 381.856ZM1153.38 314.24L1152.38 314.278L1152.38 314.292L1153.38 314.24ZM1155.77 295.02L1156.67 295.45L1156.67 295.442L1155.77 295.02ZM1172.85 278.748L1172.32 277.899L1172.32 277.901L1172.85 278.748ZM1272.56 354.812L1273.44 355.274L1273.44 355.274L1272.56 354.812ZM1235.5 344.147L1236.49 344.276L1236.5 344.263L1235.5 344.147ZM1224.9 302.181L1224.01 302.634L1224.01 302.641L1224.9 302.181ZM1217.57 294.181L1217.1 295.06L1217.13 295.078L1217.16 295.094L1217.57 294.181ZM1196.29 298.92L1197.14 299.455L1197.18 299.394L1197.21 299.329L1196.29 298.92ZM1196.3 310.39L1197.29 310.237L1197.29 310.237L1196.3 310.39ZM1210.5 351.291L1209.75 351.953L1209.76 351.964L1209.77 351.974L1210.5 351.291ZM1232.5 381.54C1213.45 387.181 1198.03 386.914 1186.11 380.961L1185.21 382.75C1197.76 389.015 1213.76 389.177 1233.07 383.457L1232.5 381.54ZM1186.12 380.969C1174.33 374.828 1165.5 362.216 1159.77 342.854L1157.85 343.422C1163.66 363.051 1172.73 376.251 1185.2 382.742L1186.12 380.969ZM1159.77 342.854C1156.61 332.201 1154.82 322.648 1154.37 314.188L1152.38 314.292C1152.83 322.949 1154.66 332.661 1157.85 343.422L1159.77 342.854ZM1154.38 314.202C1154.04 305.471 1154.85 299.27 1156.67 295.45L1154.86 294.59C1152.82 298.866 1152.04 305.478 1152.38 314.278L1154.38 314.202ZM1156.67 295.442C1158.99 290.466 1164.48 285.17 1173.38 279.596L1172.32 277.901C1163.33 283.535 1157.43 289.086 1154.86 294.597L1156.67 295.442ZM1173.38 279.598C1182.42 273.985 1191.2 269.922 1199.73 267.396L1199.16 265.478C1190.43 268.064 1181.49 272.209 1172.32 277.899L1173.38 279.598ZM1199.73 267.396C1220.25 261.318 1235.93 261.437 1246.98 267.435L1247.93 265.677C1236.2 259.303 1219.87 259.343 1199.16 265.478L1199.73 267.396ZM1246.98 267.435C1258.04 273.439 1266.49 285.903 1272.18 305.123L1274.1 304.555C1268.33 285.102 1259.66 272.044 1247.93 265.677L1246.98 267.435ZM1272.18 305.123C1278.3 325.777 1278.04 342.135 1271.67 354.349L1273.44 355.274C1280.16 342.407 1280.29 325.449 1274.1 304.555L1272.18 305.123ZM1271.67 354.349C1265.3 366.556 1252.34 375.663 1232.5 381.54L1233.07 383.457C1253.18 377.5 1266.73 368.149 1273.44 355.274L1271.67 354.349ZM1225.48 355.199C1228.7 354.245 1231.28 352.876 1233.15 351.046C1235.03 349.204 1236.15 346.934 1236.49 344.276L1234.51 344.017C1234.22 346.242 1233.3 348.096 1231.75 349.617C1230.18 351.153 1227.92 352.389 1224.91 353.281L1225.48 355.199ZM1236.5 344.263C1237.11 338.999 1235.69 330.71 1232.38 319.519L1230.46 320.087C1233.77 331.27 1235.08 339.209 1234.51 344.03L1236.5 344.263ZM1232.38 319.519C1230.05 311.67 1227.86 305.724 1225.78 301.721L1224.01 302.641C1225.99 306.474 1228.15 312.276 1230.46 320.087L1232.38 319.519ZM1225.79 301.727C1223.66 297.541 1221.08 294.653 1217.98 293.268L1217.16 295.094C1219.68 296.22 1221.98 298.664 1224.01 302.634L1225.79 301.727ZM1218.05 293.302C1215.03 291.661 1211.14 291.655 1206.54 293.017L1207.11 294.935C1211.46 293.646 1214.73 293.777 1217.1 295.06L1218.05 293.302ZM1206.54 293.017C1203.32 293.97 1200.79 294.872 1198.97 295.727C1198.06 296.154 1197.3 296.583 1196.71 297.017C1196.14 297.44 1195.64 297.931 1195.38 298.512L1197.21 299.329C1197.26 299.208 1197.44 298.967 1197.9 298.627C1198.34 298.299 1198.98 297.934 1199.82 297.537C1201.51 296.745 1203.93 295.876 1207.11 294.935L1206.54 293.017ZM1195.45 298.386C1194.81 299.396 1194.58 300.984 1194.58 302.912C1194.59 304.896 1194.83 307.445 1195.31 310.543L1197.29 310.237C1196.82 307.186 1196.59 304.749 1196.58 302.91C1196.58 301.014 1196.83 299.942 1197.14 299.455L1195.45 298.386ZM1195.31 310.543C1196.27 316.74 1197.71 323.055 1199.61 329.487L1201.53 328.919C1199.65 322.566 1198.23 316.339 1197.29 310.237L1195.31 310.543ZM1199.61 329.487C1202.83 340.364 1206.19 347.916 1209.75 351.953L1211.25 350.63C1208.01 346.949 1204.74 339.774 1201.53 328.919L1199.61 329.487ZM1209.77 351.974C1213.66 356.136 1218.99 357.121 1225.48 355.199L1224.91 353.281C1218.93 355.051 1214.47 354.07 1211.23 350.608L1209.77 351.974ZM1381.82 222.584L1382.38 221.757L1382.38 221.753L1382.37 221.749L1381.82 222.584ZM1388.84 234.845L1387.91 235.214L1387.92 235.225L1387.92 235.235L1388.84 234.845ZM1416.74 324.619L1417.02 325.578L1417.98 325.294L1417.7 324.335L1416.74 324.619ZM1375.75 336.76L1374.79 337.044L1375.07 338.003L1376.03 337.719L1375.75 336.76ZM1351.76 260.17L1352.42 259.421L1352.38 259.383L1352.33 259.349L1351.76 260.17ZM1337.22 262.131L1337.53 263.079L1337.58 263.062L1337.63 263.04L1337.22 262.131ZM1324.24 269.365L1323.62 268.581L1323.08 269L1323.28 269.649L1324.24 269.365ZM1346.74 345.352L1347.03 346.311L1347.99 346.027L1347.7 345.068L1346.74 345.352ZM1305.75 357.494L1304.8 357.778L1305.08 358.736L1306.04 358.452L1305.75 357.494ZM1273.09 247.229L1272.81 246.27L1271.85 246.554L1272.13 247.513L1273.09 247.229ZM1306.41 237.36L1307.27 236.854L1306.88 236.178L1306.13 236.401L1306.41 237.36ZM1316.43 254.468L1315.57 254.973L1316.57 256.686L1317.35 254.86L1316.43 254.468ZM1368.26 219.041L1368.23 220.041L1368.24 220.041L1368.26 219.041ZM1381.26 223.411C1382.04 223.943 1383.02 225.128 1384.18 227.145C1385.31 229.131 1386.56 231.816 1387.91 235.214L1389.77 234.475C1388.4 231.032 1387.12 228.252 1385.91 226.151C1384.73 224.081 1383.56 222.557 1382.38 221.757L1381.26 223.411ZM1387.92 235.235C1390.78 241.975 1394.34 252.519 1398.6 266.894L1400.51 266.326C1396.25 251.937 1392.67 241.303 1389.76 234.454L1387.92 235.235ZM1398.6 266.894L1415.78 324.903L1417.7 324.335L1400.51 266.326L1398.6 266.894ZM1416.45 323.66L1375.46 335.802L1376.03 337.719L1417.02 325.578L1416.45 323.66ZM1376.71 336.476L1359.67 278.947L1357.75 279.515L1374.79 337.044L1376.71 336.476ZM1359.67 278.947L1356.75 269.119L1354.84 269.687L1357.75 279.515L1359.67 278.947ZM1356.75 269.119C1355.99 266.543 1355.26 264.451 1354.57 262.859C1353.89 261.305 1353.18 260.097 1352.42 259.421L1351.09 260.919C1351.51 261.285 1352.07 262.137 1352.73 263.661C1353.38 265.146 1354.09 267.15 1354.84 269.687L1356.75 269.119ZM1352.33 259.349C1351.21 258.572 1349.73 258.272 1348.02 258.313C1346.31 258.355 1344.26 258.741 1341.89 259.441L1342.46 261.359C1344.73 260.686 1346.6 260.348 1348.07 260.313C1349.56 260.277 1350.55 260.549 1351.19 260.991L1352.33 259.349ZM1341.89 259.441C1339.65 260.107 1337.94 260.7 1336.8 261.222L1337.63 263.04C1338.64 262.58 1340.24 262.019 1342.46 261.359L1341.89 259.441ZM1336.9 261.183C1332.35 262.71 1327.92 265.182 1323.62 268.581L1324.86 270.15C1329 266.873 1333.23 264.523 1337.53 263.079L1336.9 261.183ZM1323.28 269.649L1345.79 345.636L1347.7 345.068L1325.19 269.081L1323.28 269.649ZM1346.46 344.393L1305.47 356.535L1306.04 358.452L1347.03 346.311L1346.46 344.393ZM1306.71 357.21L1274.05 246.945L1272.13 247.513L1304.8 357.778L1306.71 357.21ZM1273.38 248.188L1306.7 238.319L1306.13 236.401L1272.81 246.27L1273.38 248.188ZM1305.55 237.865L1315.57 254.973L1317.3 253.963L1307.27 236.854L1305.55 237.865ZM1317.35 254.86C1324.64 237.784 1336.11 226.997 1351.77 222.36L1351.2 220.442C1334.9 225.272 1323 236.53 1315.51 254.075L1317.35 254.86ZM1351.77 222.36C1357.43 220.682 1362.92 219.913 1368.23 220.04L1368.28 218.041C1362.74 217.908 1357.04 218.712 1351.2 220.442L1351.77 222.36ZM1368.24 220.041C1373.7 220.122 1378.02 221.276 1381.27 223.419L1382.37 221.749C1378.71 219.335 1373.98 218.126 1368.27 218.041L1368.24 220.041Z" fill="black"/>
<defs>
<clipPath id="clip0_30_66">
<rect x="328.533" width="904" height="904" rx="20" fill="white"/>
</clipPath>
</defs>
</svg>
